<?xml version="1.0" encoding="utf-8"?>
<!-- Generator: Adobe Illustrator 14.0.0, SVG Export Plug-In . SVG Version: 6.00 Build 43363)  -->
<!DOCTYPE svg PUBLIC "-//W3C//DTD SVG 1.1//EN" "http://www.w3.org/Graphics/SVG/1.1/DTD/svg11.dtd">
<svg version="1.1" xmlns="http://www.w3.org/2000/svg" xmlns:xlink="http://www.w3.org/1999/xlink" x="0px" y="0px" width="740px"
	 height="320px" viewBox="1419 -211.6001 740 320" enable-background="new 1419 -211.6001 740 320" xml:space="preserve">
<g id="Layer_3">
	<rect x="1419" y="-211.6001" fill="#FFFFFF" width="740" height="320"/>
</g>
<g id="Layer_5">
	
		<circle fill="none" stroke="#BCBEC0" stroke-width="2.1" stroke-linecap="round" stroke-linejoin="round" stroke-dasharray="4.2,4.2" cx="1957.8213" cy="-50.1099" r="140"/>
	
		<circle fill="none" stroke="#BCBEC0" stroke-width="2.1" stroke-linecap="round" stroke-linejoin="round" stroke-dasharray="4.2,4.2" cx="1957.8213" cy="-50.1099" r="112"/>
	
		<circle fill="none" stroke="#BCBEC0" stroke-width="2.1" stroke-linecap="round" stroke-linejoin="round" stroke-dasharray="4.2,4.2" cx="1957.8213" cy="-50.1099" r="84"/>
	
		<circle fill="none" stroke="#BCBEC0" stroke-width="2.1" stroke-linecap="round" stroke-linejoin="round" stroke-dasharray="4.2,4.2" cx="1957.8213" cy="-50.1099" r="56"/>
	
		<circle fill="none" stroke="#BCBEC0" stroke-width="2.1" stroke-linecap="round" stroke-linejoin="round" stroke-dasharray="4.2,4.2" cx="1957.8213" cy="-50.1094" r="28"/>
	<g>
		<g>
			<path fill="none" stroke="#58595B" stroke-width="2.1" stroke-linecap="round" stroke-linejoin="round" d="M2113.9854-86.1665
				c2.665,11.5898,4.0713,23.6587,4.0713,36.0566"/>
			<polygon fill="#58595B" points="2119.0889,-84.1377 2110.8047,-99.7529 2110.1709,-82.0874 			"/>
		</g>
	</g>
	
		<line fill="none" stroke="#BCBEC0" stroke-width="2.1" stroke-linecap="round" stroke-linejoin="round" stroke-dasharray="4.2,4.2" x1="1505.3398" y1="-171.3525" x2="1645.3398" y2="71.1343"/>
	
		<line fill="none" stroke="#BCBEC0" stroke-width="2.1" stroke-linecap="round" stroke-linejoin="round" stroke-dasharray="4.2,4.2" x1="1505.3398" y1="71.1343" x2="1645.3398" y2="-171.3525"/>
	
		<polygon fill="none" stroke="#BCBEC0" stroke-width="2.1" stroke-linecap="round" stroke-linejoin="round" stroke-dasharray="4.2,4.2" points="
		1505.3398,71.1343 1435.3398,-50.1099 1505.3398,-171.3525 1645.3398,-171.3525 1715.3398,-50.1099 1645.3398,71.1343 	"/>
	
		<polygon fill="none" stroke="#BCBEC0" stroke-width="2.1" stroke-linecap="round" stroke-linejoin="round" stroke-dasharray="4.2,4.2" points="
		1519.3398,46.8853 1463.3398,-50.1099 1519.3398,-147.104 1631.3398,-147.104 1687.3398,-50.1099 1631.3398,46.8853 	"/>
	
		<polygon fill="none" stroke="#BCBEC0" stroke-width="2.1" stroke-linecap="round" stroke-linejoin="round" stroke-dasharray="4.2,4.2" points="
		1533.3398,22.6367 1491.3398,-50.1094 1533.3398,-122.8555 1617.3398,-122.8555 1659.3398,-50.1094 1617.3398,22.6367 	"/>
	
		<polygon fill="none" stroke="#BCBEC0" stroke-width="2.1" stroke-linecap="round" stroke-linejoin="round" stroke-dasharray="4.2,4.2" points="
		1547.3398,-1.6118 1519.3398,-50.1099 1547.3398,-98.6074 1603.3398,-98.6074 1631.3398,-50.1099 1603.3398,-1.6118 	"/>
	
		<polygon fill="none" stroke="#BCBEC0" stroke-width="2.1" stroke-linecap="round" stroke-linejoin="round" stroke-dasharray="4.2,4.2" points="
		1561.3398,-25.8608 1547.3398,-50.1094 1561.3398,-74.3579 1589.3398,-74.3579 1603.3398,-50.1094 1589.3398,-25.8608 	"/>
	
		<line fill="none" stroke="#666666" stroke-width="2.0778" stroke-linecap="round" stroke-linejoin="round" stroke-dasharray="8.3111,4.1556" x1="1575.3398" y1="-50.1099" x2="1761.3193" y2="-50.1099"/>
	
		<line fill="none" stroke="#BCBEC0" stroke-width="2.1" stroke-linecap="round" stroke-linejoin="round" stroke-dasharray="4.2,4.2" x1="1435.3398" y1="-50.1099" x2="1575.3398" y2="-50.1099"/>
	<g>
		<circle fill="#FF0000" cx="1715.3398" cy="-50.1094" r="8.4004"/>
		<circle fill="none" stroke="#000000" stroke-width="0.504" cx="1715.3398" cy="-50.1094" r="8.4004"/>
	</g>
	<g>
		<circle fill="#00FFFF" cx="1435.3398" cy="-50.1094" r="8.4004"/>
		<circle fill="none" stroke="#000000" stroke-width="0.504" cx="1435.3398" cy="-50.1094" r="8.4004"/>
	</g>
	<g>
		<circle fill="#0000FF" cx="1505.3398" cy="71.1348" r="8.4004"/>
		<circle fill="none" stroke="#000000" stroke-width="0.504" cx="1505.3398" cy="71.1348" r="8.4004"/>
	</g>
	<g>
		<circle fill="#7F7F7F" cx="1575.3398" cy="-50.1094" r="8.4004"/>
		<circle fill="none" stroke="#000000" stroke-width="0.504" cx="1575.3398" cy="-50.1094" r="8.4004"/>
	</g>
	<g>
		<circle fill="#FF00FF" cx="1645.3398" cy="71.1348" r="8.4004"/>
		<circle fill="none" stroke="#000000" stroke-width="0.504" cx="1645.3398" cy="71.1348" r="8.4004"/>
	</g>
	<g>
		<circle fill="#FFFF00" cx="1645.3398" cy="-171.3525" r="8.4004"/>
		<circle fill="none" stroke="#000000" stroke-width="0.504" cx="1645.3398" cy="-171.3525" r="8.4004"/>
	</g>
	<g>
		<circle fill="#00FF00" cx="1505.3398" cy="-171.3525" r="8.4004"/>
		<circle fill="none" stroke="#000000" stroke-width="0.504" cx="1505.3398" cy="-171.3525" r="8.4004"/>
	</g>
	<g>
		<g>
			
				<line fill="none" stroke="#58595B" stroke-width="2.1" stroke-linecap="round" stroke-linejoin="round" x1="1720.1113" y1="-77.1763" x2="1735.7393" y2="-50.1099"/>
			<polygon fill="#58595B" points="1725.585,-76.7334 1713.0859,-89.2324 1717.6611,-72.1582 			"/>
		</g>
	</g>
	<g>
		<path d="M1734.9805-83.0723l-1.0801,5.6812h6.2012l1.0801-5.6812h1.6611l-2.5605,13.4829h-1.6611l1.1807-6.3413h-6.1816
			l-1.2002,6.3413h-1.6602l2.5605-13.4829H1734.9805z"/>
	</g>
	<g>
		<path d="M1745.1152-19.6626c-0.7607,0.3398-1.9805,0.6401-3.501,0.6401c-3.4004,0-5.4609-2.1406-5.4609-5.5815
			c0-2.5405,1.0195-4.9609,2.8604-6.501c1.4004-1.1807,3.1211-1.8008,5.1016-1.8008c1.4795,0,2.5605,0.3804,2.9199,0.6401
			l-0.54,1.3403c-0.5-0.2998-1.46-0.54-2.6602-0.54c-1.4004,0-2.8213,0.54-3.8613,1.5005
			c-1.2598,1.1802-2.0605,3.0806-2.0605,5.1211c0,2.4204,1.1006,4.4009,4.1016,4.4009c1.0195,0,2.1396-0.2002,2.8799-0.5801
			L1745.1152-19.6626z"/>
	</g>
	<g>
		<path fill="#58595B" d="M1700.5693-40.1914c0,3.0957-1.1621,4.8047-3.165,4.8047c-1.7793,0-2.998-1.667-3.0264-4.6787
			c0-3.0679,1.3311-4.7344,3.1797-4.7344C1699.4629-44.7998,1700.5693-43.0913,1700.5693-40.1914z M1695.625-40.0513
			c0,2.3672,0.7285,3.7119,1.8486,3.7119c1.2471,0,1.8496-1.4707,1.8496-3.7964c0-2.2412-0.5605-3.7119-1.8496-3.7119
			C1696.4092-43.8477,1695.625-42.5308,1695.625-40.0513z"/>
		<path fill="#58595B" d="M1706.2939-43.3291c0,1.1343-0.9102,1.877-1.877,1.877c-1.0928,0-1.835-0.8267-1.835-1.8071
			c0-1.0786,0.8262-1.8911,1.877-1.8911C1705.6074-45.1504,1706.2939-44.2817,1706.2939-43.3291z M1703.3389-43.2593
			c0,0.6445,0.4619,1.1489,1.0918,1.1489c0.6445,0,1.1064-0.5186,1.1064-1.2051c0-0.5181-0.3076-1.1763-1.1201-1.1763
			C1703.7021-44.4917,1703.3389-43.8613,1703.3389-43.2593z"/>
	</g>
	<g>
		<path fill="#58595B" d="M1519.4746-164.8311h-0.0283l-1.582,0.854l-0.2383-0.9385l1.9893-1.0645h1.0498v9.105h-1.1904V-164.8311z"
			/>
		<path fill="#58595B" d="M1523.9805-156.875v-0.7563l0.9668-0.9385c2.3252-2.2134,3.3896-3.3901,3.3896-4.7627
			c0-0.9243-0.4336-1.7788-1.793-1.7788c-0.8262,0-1.5127,0.4199-1.9326,0.7705l-0.3926-0.8687
			c0.6162-0.5181,1.5273-0.9243,2.5635-0.9243c1.9609,0,2.7881,1.3447,2.7881,2.6475c0,1.6807-1.2188,3.0396-3.1377,4.8882
			l-0.7148,0.6724v0.0283h4.0762v1.0225H1523.9805z"/>
		<path fill="#58595B" d="M1537.2275-161.5254c0,3.0957-1.1621,4.8047-3.165,4.8047c-1.7793,0-2.998-1.667-3.0264-4.6787
			c0-3.0679,1.3311-4.7344,3.1797-4.7344C1536.1211-166.1338,1537.2275-164.4253,1537.2275-161.5254z M1532.2832-161.3853
			c0,2.3672,0.7285,3.7119,1.8486,3.7119c1.2471,0,1.8496-1.4707,1.8496-3.7964c0-2.2412-0.5605-3.7119-1.8496-3.7119
			C1533.0674-165.1816,1532.2832-163.8647,1532.2832-161.3853z"/>
		<path fill="#58595B" d="M1542.9521-164.6631c0,1.1343-0.9102,1.877-1.877,1.877c-1.0928,0-1.835-0.8267-1.835-1.8071
			c0-1.0786,0.8262-1.8911,1.877-1.8911C1542.2656-166.4844,1542.9521-165.6157,1542.9521-164.6631z M1539.9971-164.5933
			c0,0.6445,0.4619,1.1489,1.0918,1.1489c0.6445,0,1.1064-0.5186,1.1064-1.2051c0-0.5181-0.3076-1.1763-1.1201-1.1763
			C1540.3604-165.8257,1539.9971-165.1953,1539.9971-164.5933z"/>
	</g>
	<g>
		<path fill="#58595B" d="M1516.7988,67.125v-0.7563l0.9668-0.9385c2.3252-2.2134,3.3896-3.3901,3.3896-4.7627
			c0-0.9243-0.4336-1.7788-1.793-1.7788c-0.8262,0-1.5127,0.4199-1.9326,0.7705l-0.3926-0.8687
			c0.6162-0.5181,1.5273-0.9243,2.5635-0.9243c1.9609,0,2.7881,1.3447,2.7881,2.6475c0,1.6807-1.2188,3.0396-3.1377,4.8882
			l-0.7148,0.6724v0.0283h4.0762v1.0225H1516.7988z"/>
		<path fill="#58595B" d="M1527.791,67.125v-2.4932h-4.2305V63.833l4.0625-5.813h1.3301v5.6592h1.2754v0.9526h-1.2754v2.4932
			H1527.791z M1527.791,63.6792v-3.0396c0-0.4766,0.0137-0.9526,0.042-1.4287h-0.042c-0.2803,0.5322-0.5039,0.9243-0.7568,1.3447
			l-2.2266,3.0957v0.0278H1527.791z"/>
		<path fill="#58595B" d="M1537.2275,62.4746c0,3.0957-1.1621,4.8047-3.165,4.8047c-1.7793,0-2.998-1.667-3.0264-4.6787
			c0-3.0679,1.3311-4.7344,3.1797-4.7344C1536.1211,57.8662,1537.2275,59.5747,1537.2275,62.4746z M1532.2832,62.6147
			c0,2.3672,0.7285,3.7119,1.8486,3.7119c1.2471,0,1.8496-1.4707,1.8496-3.7964c0-2.2412-0.5605-3.7119-1.8496-3.7119
			C1533.0674,58.8184,1532.2832,60.1353,1532.2832,62.6147z"/>
		<path fill="#58595B" d="M1542.9521,59.3369c0,1.1343-0.9102,1.877-1.877,1.877c-1.0928,0-1.835-0.8267-1.835-1.8071
			c0-1.0786,0.8262-1.8911,1.877-1.8911C1542.2656,57.5156,1542.9521,58.3843,1542.9521,59.3369z M1539.9971,59.4067
			c0,0.6445,0.4619,1.1489,1.0918,1.1489c0.6445,0,1.1064-0.5186,1.1064-1.2051c0-0.5181-0.3076-1.1763-1.1201-1.1763
			C1540.3604,58.1743,1539.9971,58.8047,1539.9971,59.4067z"/>
	</g>
	<g>
		<path d="M1580.6113-33.5132c0,1.9653-0.7217,4.1328-2.0664,5.4766c-0.9912,0.9912-2.3184,1.5791-3.8799,1.5791
			c-2.9238,0-4.2842-2.2007-4.2842-4.603c0-1.999,0.7725-4.1997,2.1504-5.5605c0.9746-0.9409,2.3682-1.5288,3.7969-1.5288
			C1579.3857-38.1499,1580.6113-35.9326,1580.6113-33.5132z M1573.5557-35.8486c-1.0918,1.0923-1.7139,3.0913-1.7139,4.6704
			c0,1.8481,0.8232,3.5449,3.041,3.5449c0.958,0,1.8818-0.4199,2.5869-1.1255c1.0586-1.0752,1.6807-3.1079,1.6807-4.6875
			c0-1.6128-0.5215-3.5278-3.0078-3.5278C1575.1348-36.9741,1574.2617-36.5371,1573.5557-35.8486z"/>
	</g>
	<g>
		<g>
			
				<line fill="none" stroke="#58595B" stroke-width="2.1" stroke-linecap="round" stroke-linejoin="round" x1="1751.7402" y1="-39.8394" x2="1730.7402" y2="-39.8394"/>
			<polygon fill="#58595B" points="1749.2432,-36.2241 1762.9033,-39.8838 1749.2432,-43.5444 			"/>
		</g>
	</g>
	
		<line fill="none" stroke="#BCBEC0" stroke-width="2.1" stroke-linecap="round" stroke-linejoin="round" stroke-dasharray="4.2,4.2" x1="1887.8213" y1="-171.3525" x2="2027.8213" y2="71.1343"/>
	
		<line fill="none" stroke="#BCBEC0" stroke-width="2.1" stroke-linecap="round" stroke-linejoin="round" stroke-dasharray="4.2,4.2" x1="1887.8213" y1="71.1343" x2="2027.8213" y2="-171.3525"/>
	
		<line fill="none" stroke="#666666" stroke-width="2.0825" stroke-linecap="round" stroke-linejoin="round" stroke-dasharray="8.3301,4.1651" x1="1957.8213" y1="-50.1099" x2="2144.6523" y2="-50.1099"/>
	
		<line fill="none" stroke="#BCBEC0" stroke-width="2.1" stroke-linecap="round" stroke-linejoin="round" stroke-dasharray="4.2,4.2" x1="1817.8213" y1="-50.1099" x2="1957.8213" y2="-50.1099"/>
	<g>
		<circle fill="#FF0000" cx="2097.8223" cy="-50.1094" r="8.4004"/>
		<circle fill="none" stroke="#000000" stroke-width="0.504" cx="2097.8223" cy="-50.1094" r="8.4004"/>
	</g>
	<g>
		<circle fill="#00FFFF" cx="1817.8223" cy="-50.1094" r="8.4004"/>
		<circle fill="none" stroke="#000000" stroke-width="0.504" cx="1817.8223" cy="-50.1094" r="8.4004"/>
	</g>
	<g>
		<circle fill="#0000FF" cx="1887.8223" cy="71.1348" r="8.4004"/>
		<circle fill="none" stroke="#000000" stroke-width="0.504" cx="1887.8223" cy="71.1348" r="8.4004"/>
	</g>
	<g>
		<circle fill="#7F7F7F" cx="1957.8223" cy="-50.1094" r="8.4004"/>
		<circle fill="none" stroke="#000000" stroke-width="0.504" cx="1957.8223" cy="-50.1094" r="8.4004"/>
	</g>
	<g>
		<circle fill="#FF00FF" cx="2027.8223" cy="71.1348" r="8.4004"/>
		<circle fill="none" stroke="#000000" stroke-width="0.504" cx="2027.8223" cy="71.1348" r="8.4004"/>
	</g>
	<g>
		<circle fill="#FFFF00" cx="2027.8223" cy="-171.3525" r="8.4004"/>
		<circle fill="none" stroke="#000000" stroke-width="0.504" cx="2027.8223" cy="-171.3525" r="8.4004"/>
	</g>
	<g>
		<circle fill="#00FF00" cx="1887.8223" cy="-171.3525" r="8.4004"/>
		<circle fill="none" stroke="#000000" stroke-width="0.504" cx="1887.8223" cy="-171.3525" r="8.4004"/>
	</g>
	<g>
		<path d="M2125.4619-81.0723l-1.0801,5.6812h6.2012l1.0801-5.6812h1.6611l-2.5605,13.4829h-1.6611l1.1807-6.3413h-6.1816
			l-1.2002,6.3413h-1.6602l2.5605-13.4829H2125.4619z"/>
	</g>
	<g>
		<path d="M2127.5957-19.6626c-0.7607,0.3398-1.9805,0.6401-3.501,0.6401c-3.4004,0-5.4609-2.1406-5.4609-5.5815
			c0-2.5405,1.0195-4.9609,2.8604-6.501c1.4004-1.1807,3.1211-1.8008,5.1016-1.8008c1.4795,0,2.5605,0.3804,2.9199,0.6401
			l-0.54,1.3403c-0.5-0.2998-1.46-0.54-2.6602-0.54c-1.4004,0-2.8213,0.54-3.8613,1.5005
			c-1.2598,1.1802-2.0605,3.0806-2.0605,5.1211c0,2.4204,1.1006,4.4009,4.1016,4.4009c1.0195,0,2.1396-0.2002,2.8799-0.5801
			L2127.5957-19.6626z"/>
	</g>
	<g>
		<path fill="#58595B" d="M2083.0498-40.1914c0,3.0957-1.1621,4.8047-3.165,4.8047c-1.7793,0-2.998-1.667-3.0264-4.6787
			c0-3.0679,1.3311-4.7344,3.1797-4.7344C2081.9434-44.7998,2083.0498-43.0913,2083.0498-40.1914z M2078.1055-40.0513
			c0,2.3672,0.7285,3.7119,1.8486,3.7119c1.2471,0,1.8496-1.4707,1.8496-3.7964c0-2.2412-0.5605-3.7119-1.8496-3.7119
			C2078.8896-43.8477,2078.1055-42.5308,2078.1055-40.0513z"/>
		<path fill="#58595B" d="M2088.7744-43.3291c0,1.1343-0.9102,1.877-1.877,1.877c-1.0928,0-1.835-0.8267-1.835-1.8071
			c0-1.0786,0.8262-1.8911,1.877-1.8911C2088.0879-45.1504,2088.7744-44.2817,2088.7744-43.3291z M2085.8193-43.2593
			c0,0.6445,0.4619,1.1489,1.0918,1.1489c0.6445,0,1.1064-0.5186,1.1064-1.2051c0-0.5181-0.3076-1.1763-1.1201-1.1763
			C2086.1826-44.4917,2085.8193-43.8613,2085.8193-43.2593z"/>
	</g>
	<g>
		<path fill="#58595B" d="M1900.9551-170.8311h-0.0283l-1.582,0.854l-0.2383-0.9385l1.9893-1.0645h1.0498v9.105h-1.1904V-170.8311z"
			/>
		<path fill="#58595B" d="M1905.4609-162.875v-0.7563l0.9668-0.9385c2.3252-2.2134,3.3896-3.3901,3.3896-4.7627
			c0-0.9243-0.4336-1.7788-1.793-1.7788c-0.8262,0-1.5127,0.4199-1.9326,0.7705l-0.3926-0.8687
			c0.6162-0.5181,1.5273-0.9243,2.5635-0.9243c1.9609,0,2.7881,1.3447,2.7881,2.6475c0,1.6807-1.2188,3.0396-3.1377,4.8882
			l-0.7148,0.6724v0.0283h4.0762v1.0225H1905.4609z"/>
		<path fill="#58595B" d="M1918.708-167.5254c0,3.0957-1.1621,4.8047-3.165,4.8047c-1.7793,0-2.998-1.667-3.0264-4.6787
			c0-3.0679,1.3311-4.7344,3.1797-4.7344C1917.6016-172.1338,1918.708-170.4253,1918.708-167.5254z M1913.7637-167.3853
			c0,2.3672,0.7285,3.7119,1.8486,3.7119c1.2471,0,1.8496-1.4707,1.8496-3.7964c0-2.2412-0.5605-3.7119-1.8496-3.7119
			C1914.5479-171.1816,1913.7637-169.8647,1913.7637-167.3853z"/>
		<path fill="#58595B" d="M1924.4326-170.6631c0,1.1343-0.9102,1.877-1.877,1.877c-1.0928,0-1.835-0.8267-1.835-1.8071
			c0-1.0786,0.8262-1.8911,1.877-1.8911C1923.7461-172.4844,1924.4326-171.6157,1924.4326-170.6631z M1921.4775-170.5933
			c0,0.6445,0.4619,1.1489,1.0918,1.1489c0.6445,0,1.1064-0.5186,1.1064-1.2051c0-0.5181-0.3076-1.1763-1.1201-1.1763
			C1921.8408-171.8257,1921.4775-171.1953,1921.4775-170.5933z"/>
	</g>
	<g>
		<path fill="#58595B" d="M1898.2793,71.125v-0.7563l0.9668-0.9385c2.3252-2.2134,3.3896-3.3901,3.3896-4.7627
			c0-0.9243-0.4336-1.7788-1.793-1.7788c-0.8262,0-1.5127,0.4199-1.9326,0.7705l-0.3926-0.8687
			c0.6162-0.5181,1.5273-0.9243,2.5635-0.9243c1.9609,0,2.7881,1.3447,2.7881,2.6475c0,1.6807-1.2188,3.0396-3.1377,4.8882
			l-0.7148,0.6724v0.0283h4.0762v1.0225H1898.2793z"/>
		<path fill="#58595B" d="M1909.2715,71.125v-2.4932h-4.2305V67.833l4.0625-5.813h1.3301v5.6592h1.2754v0.9526h-1.2754v2.4932
			H1909.2715z M1909.2715,67.6792v-3.0396c0-0.4766,0.0137-0.9526,0.042-1.4287h-0.042c-0.2803,0.5322-0.5039,0.9243-0.7568,1.3447
			l-2.2266,3.0957v0.0278H1909.2715z"/>
		<path fill="#58595B" d="M1918.708,66.4746c0,3.0957-1.1621,4.8047-3.165,4.8047c-1.7793,0-2.998-1.667-3.0264-4.6787
			c0-3.0679,1.3311-4.7344,3.1797-4.7344C1917.6016,61.8662,1918.708,63.5747,1918.708,66.4746z M1913.7637,66.6147
			c0,2.3672,0.7285,3.7119,1.8486,3.7119c1.2471,0,1.8496-1.4707,1.8496-3.7964c0-2.2412-0.5605-3.7119-1.8496-3.7119
			C1914.5479,62.8184,1913.7637,64.1353,1913.7637,66.6147z"/>
		<path fill="#58595B" d="M1924.4326,63.3369c0,1.1343-0.9102,1.877-1.877,1.877c-1.0928,0-1.835-0.8267-1.835-1.8071
			c0-1.0786,0.8262-1.8911,1.877-1.8911C1923.7461,61.5156,1924.4326,62.3843,1924.4326,63.3369z M1921.4775,63.4067
			c0,0.6445,0.4619,1.1489,1.0918,1.1489c0.6445,0,1.1064-0.5186,1.1064-1.2051c0-0.5181-0.3076-1.1763-1.1201-1.1763
			C1921.8408,62.1743,1921.4775,62.8047,1921.4775,63.4067z"/>
	</g>
	<g>
		<path d="M1963.0918-33.5132c0,1.9653-0.7217,4.1328-2.0664,5.4766c-0.9912,0.9912-2.3184,1.5791-3.8799,1.5791
			c-2.9238,0-4.2842-2.2007-4.2842-4.603c0-1.999,0.7725-4.1997,2.1504-5.5605c0.9746-0.9409,2.3682-1.5288,3.7969-1.5288
			C1961.8662-38.1499,1963.0918-35.9326,1963.0918-33.5132z M1956.0361-35.8486c-1.0918,1.0923-1.7139,3.0913-1.7139,4.6704
			c0,1.8481,0.8232,3.5449,3.041,3.5449c0.958,0,1.8818-0.4199,2.5869-1.1255c1.0586-1.0752,1.6807-3.1079,1.6807-4.6875
			c0-1.6128-0.5215-3.5278-3.0078-3.5278C1957.6152-36.9741,1956.7422-36.5371,1956.0361-35.8486z"/>
	</g>
	<g>
		<g>
			
				<line fill="none" stroke="#58595B" stroke-width="2.1" stroke-linecap="round" stroke-linejoin="round" x1="2134.2227" y1="-39.8394" x2="2113.2227" y2="-39.8394"/>
			<polygon fill="#58595B" points="2131.7256,-36.2241 2145.3857,-39.8838 2131.7256,-43.5444 			"/>
		</g>
	</g>
	<g>
		<circle fill="#339ECC" cx="1505.3398" cy="-25.8608" r="3.5"/>
		<circle fill="none" stroke="#000000" stroke-width="0.42" cx="1505.3398" cy="-25.8608" r="3.5"/>
	</g>
	<g>
		<g>
			
				<line fill="none" stroke="#58595B" stroke-width="1.4" stroke-linecap="round" stroke-linejoin="round" x1="1514.1689" y1="-28.9214" x2="1575.3398" y2="-50.1099"/>
			<polygon fill="#58595B" points="1515.1484,-32.4492 1505.3906,-25.8418 1517.1455,-26.6851 			"/>
		</g>
	</g>
	<g>
		<circle fill="#339ECC" cx="1878.8672" cy="-21.3721" r="3.5"/>
		<circle fill="none" stroke="#000000" stroke-width="0.42" cx="1878.8672" cy="-21.3721" r="3.5"/>
	</g>
	<g>
		<g>
			
				<line fill="none" stroke="#58595B" stroke-width="1.4" stroke-linecap="round" stroke-linejoin="round" x1="1887.7559" y1="-24.6074" x2="1957.8213" y2="-50.1104"/>
			<polygon fill="#58595B" points="1888.6807,-28.1499 1879.0273,-21.3911 1890.7666,-22.418 			"/>
		</g>
	</g>
	
		<path fill="none" stroke="#BCBEC0" stroke-width="2.1" stroke-linecap="round" stroke-linejoin="round" stroke-dasharray="4.2,4.2" d="
		M1957.8223-50.1094"/>
	
		<path fill="none" stroke="#BCBEC0" stroke-width="2.1" stroke-linecap="round" stroke-linejoin="round" stroke-dasharray="4.2,4.2" d="
		M1878.8672-21.3721"/>
	<g>
		<g>
			<path fill="none" stroke="#58595B" stroke-width="2" stroke-linecap="round" stroke-linejoin="round" d="M1706.6279-134.1099
				c31.3955-24.2769,78.1816-22.0874,101.8926,0"/>
			<path fill="#58595B" d="M1817.3525-125.8828c-5.5928-2.3291-13.1992-4.501-18.9893-4.6924l8.998-4.6143l3.9648-9.3027
				C1811.9277-138.7305,1814.6328-131.2949,1817.3525-125.8828z"/>
		</g>
	</g>
</g>
</svg>
